<?xml version="1.0" encoding="UTF-8"?>
<svg width="732.37mm" height="376.06mm" version="1.2" viewBox="0 0 2076 1066"
style="background-color: #ffffff;"
xmlns="http://www.w3.org/2000/svg"
xmlns:cc="http://creativecommons.org/ns#"
xmlns:dc="http://purl.org/dc/elements/1.1/" xmlns:rdf="http://www.w3.org/1999/02/22-rdf-syntax-ns#">
 <title>Qt SVG Document</title>
 <desc>Generated with Qt</desc>
 <g fill="none" fill-rule="evenodd" font-weight="400">
  <g>
   <g transform="matrix(1.0492 0 0 1.0492 593.24 43.173)" font-family="Sans" font-size="28px" stroke="#000" stroke-linecap="square" stroke-linejoin="bevel">
    <text fill="#000000" font-family="Sans" font-size="28px" font-weight="400" stroke="none" xml:space="preserve">Random Sample Histograms - Truncated Normal Distribution</text>
   </g>
   <g transform="scale(1.0492)" font-family="Ubuntu" font-size="10px" stroke="#a0a0a4" stroke-dasharray="2, 4" stroke-linecap="round" stroke-linejoin="round" stroke-width="2">
    <polyline points="112.5 958.5 952.5 958.5" fill="none"/>
   </g>
   <g transform="scale(1.0492)" font-family="Ubuntu" font-size="10px" stroke="#000" stroke-linecap="round" stroke-linejoin="round">
    <polyline points="112.5 958.5 119.5 958.5"/>
    <polyline points="952.5 958.5 945.5 958.5"/>
   </g>
   <g transform="matrix(1.0492 0 0 1.0492 79.74 1015.6)" font-family="Sans" font-size="18px" stroke="#000" stroke-linecap="square" stroke-linejoin="bevel">
    <text fill="#000000" font-family="Sans" font-size="18px" font-weight="400" stroke="none" xml:space="preserve"> 0</text>
   </g>
   <g transform="scale(1.0492)" font-family="Ubuntu" font-size="10px" stroke="#a0a0a4" stroke-dasharray="2, 4" stroke-linecap="round" stroke-linejoin="round" stroke-width="2">
    <polyline points="112.5 781.5 952.5 781.5" fill="none"/>
   </g>
   <g transform="scale(1.0492)" font-family="Ubuntu" font-size="10px" stroke="#000" stroke-linecap="round" stroke-linejoin="round">
    <polyline points="112.5 781.5 119.5 781.5"/>
    <polyline points="952.5 781.5 945.5 781.5"/>
   </g>
   <g transform="matrix(1.0492 0 0 1.0492 50.362 829.93)" font-family="Sans" font-size="18px" stroke="#000" stroke-linecap="square" stroke-linejoin="bevel">
    <text fill="#000000" font-family="Sans" font-size="18px" font-weight="400" stroke="none" xml:space="preserve"> 0.1</text>
   </g>
   <g transform="scale(1.0492)" font-family="Ubuntu" font-size="10px" stroke="#a0a0a4" stroke-dasharray="2, 4" stroke-linecap="round" stroke-linejoin="round" stroke-width="2">
    <polyline points="112.5 604.5 952.5 604.5" fill="none"/>
   </g>
   <g transform="scale(1.0492)" font-family="Ubuntu" font-size="10px" stroke="#000" stroke-linecap="round" stroke-linejoin="round">
    <polyline points="112.5 604.5 119.5 604.5"/>
    <polyline points="952.5 604.5 945.5 604.5"/>
   </g>
   <g transform="matrix(1.0492 0 0 1.0492 50.362 645.27)" font-family="Sans" font-size="18px" stroke="#000" stroke-linecap="square" stroke-linejoin="bevel">
    <text fill="#000000" font-family="Sans" font-size="18px" font-weight="400" stroke="none" xml:space="preserve"> 0.2</text>
   </g>
   <g transform="scale(1.0492)" font-family="Ubuntu" font-size="10px" stroke="#a0a0a4" stroke-dasharray="2, 4" stroke-linecap="round" stroke-linejoin="round" stroke-width="2">
    <polyline points="112.5 427.5 952.5 427.5" fill="none"/>
   </g>
   <g transform="scale(1.0492)" font-family="Ubuntu" font-size="10px" stroke="#000" stroke-linecap="round" stroke-linejoin="round">
    <polyline points="112.5 427.5 119.5 427.5"/>
    <polyline points="952.5 427.5 945.5 427.5"/>
   </g>
   <g transform="matrix(1.0492 0 0 1.0492 50.362 459.56)" font-family="Sans" font-size="18px" stroke="#000" stroke-linecap="square" stroke-linejoin="bevel">
    <text fill="#000000" font-family="Sans" font-size="18px" font-weight="400" stroke="none" xml:space="preserve"> 0.3</text>
   </g>
   <g transform="scale(1.0492)" font-family="Ubuntu" font-size="10px" stroke="#a0a0a4" stroke-dasharray="2, 4" stroke-linecap="round" stroke-linejoin="round" stroke-width="2">
    <polyline points="112.5 250.5 952.5 250.5" fill="none"/>
   </g>
   <g transform="scale(1.0492)" font-family="Ubuntu" font-size="10px" stroke="#000" stroke-linecap="round" stroke-linejoin="round">
    <polyline points="112.5 250.5 119.5 250.5"/>
    <polyline points="952.5 250.5 945.5 250.5"/>
   </g>
   <g transform="matrix(1.0492 0 0 1.0492 49.313 273.84)" font-family="Sans" font-size="18px" stroke="#000" stroke-linecap="square" stroke-linejoin="bevel">
    <text fill="#000000" font-family="Sans" font-size="18px" font-weight="400" stroke="none" xml:space="preserve"> 0.4</text>
   </g>
   <g transform="scale(1.0492)" font-family="Ubuntu" font-size="10px" stroke="#a0a0a4" stroke-dasharray="2, 4" stroke-linecap="round" stroke-linejoin="round" stroke-width="2">
    <polyline points="112.5 74.5 952.5 74.5" fill="none"/>
   </g>
   <g transform="scale(1.0492)" font-family="Ubuntu" font-size="10px" stroke="#000" stroke-linecap="round" stroke-linejoin="round">
    <polyline points="112.5 74.5 119.5 74.5"/>
    <polyline points="952.5 74.5 945.5 74.5"/>
   </g>
   <g transform="matrix(1.0492 0 0 1.0492 50.362 88.134)" font-family="Sans" font-size="18px" stroke="#000" stroke-linecap="square" stroke-linejoin="bevel">
    <text fill="#000000" font-family="Sans" font-size="18px" font-weight="400" stroke="none" xml:space="preserve"> 0.5</text>
   </g>
   <g transform="scale(1.0492)" font-family="Ubuntu" font-size="10px" stroke="#a0a0a4" stroke-dasharray="2, 4" stroke-linecap="round" stroke-linejoin="round" stroke-width="2">
    <polyline points="112.5 958.5 112.5 74.5" fill="none"/>
   </g>
   <g transform="scale(1.0492)" font-family="Ubuntu" font-size="10px" stroke="#000" stroke-linecap="round" stroke-linejoin="round">
    <polyline points="112.5 958.5 112.5 951.5"/>
    <polyline points="112.5 74.5 112.5 81.5"/>
   </g>
   <g transform="matrix(1.0492 0 0 1.0492 89.183 1034.5)" font-family="Sans" font-size="18px" stroke="#000" stroke-linecap="square" stroke-linejoin="bevel">
    <text fill="#000000" font-family="Sans" font-size="18px" font-weight="400" stroke="none" xml:space="preserve"> 1.5</text>
   </g>
   <g transform="scale(1.0492)" font-family="Ubuntu" font-size="10px" stroke="#a0a0a4" stroke-dasharray="2, 4" stroke-linecap="round" stroke-linejoin="round" stroke-width="2">
    <polyline points="205.5 958.5 205.5 74.5" fill="none"/>
   </g>
   <g transform="scale(1.0492)" font-family="Ubuntu" font-size="10px" stroke="#000" stroke-linecap="round" stroke-linejoin="round">
    <polyline points="205.5 958.5 205.5 951.5"/>
    <polyline points="205.5 74.5 205.5 81.5"/>
   </g>
   <g transform="matrix(1.0492 0 0 1.0492 201.97 1034.5)" font-family="Sans" font-size="18px" stroke="#000" stroke-linecap="square" stroke-linejoin="bevel">
    <text fill="#000000" font-family="Sans" font-size="18px" font-weight="400" stroke="none" xml:space="preserve"> 2</text>
   </g>
   <g transform="scale(1.0492)" font-family="Ubuntu" font-size="10px" stroke="#a0a0a4" stroke-dasharray="2, 4" stroke-linecap="round" stroke-linejoin="round" stroke-width="2">
    <polyline points="299.5 958.5 299.5 159.5"/>
    <polyline points="299.5 81.5 299.5 74.5"/>
   </g>
   <g transform="scale(1.0492)" font-family="Ubuntu" font-size="10px" stroke="#000" stroke-linecap="round" stroke-linejoin="round">
    <polyline points="299.5 958.5 299.5 951.5"/>
    <polyline points="299.5 74.5 299.5 81.5"/>
   </g>
   <g transform="matrix(1.0492 0 0 1.0492 284.34 1034.5)" font-family="Sans" font-size="18px" stroke="#000" stroke-linecap="square" stroke-linejoin="bevel">
    <text fill="#000000" font-family="Sans" font-size="18px" font-weight="400" stroke="none" xml:space="preserve"> 2.5</text>
   </g>
   <g transform="scale(1.0492)" font-family="Ubuntu" font-size="10px" stroke="#a0a0a4" stroke-dasharray="2, 4" stroke-linecap="round" stroke-linejoin="round" stroke-width="2">
    <polyline points="392.5 958.5 392.5 159.5"/>
    <polyline points="392.5 81.5 392.5 74.5"/>
   </g>
   <g transform="scale(1.0492)" font-family="Ubuntu" font-size="10px" stroke="#000" stroke-linecap="round" stroke-linejoin="round">
    <polyline points="392.5 958.5 392.5 951.5"/>
    <polyline points="392.5 74.5 392.5 81.5"/>
   </g>
   <g transform="matrix(1.0492 0 0 1.0492 398.18 1034.5)" font-family="Sans" font-size="18px" stroke="#000" stroke-linecap="square" stroke-linejoin="bevel">
    <text fill="#000000" font-family="Sans" font-size="18px" font-weight="400" stroke="none" xml:space="preserve"> 3</text>
   </g>
   <g transform="scale(1.0492)" font-family="Ubuntu" font-size="10px" stroke="#a0a0a4" stroke-dasharray="2, 4" stroke-linecap="round" stroke-linejoin="round" stroke-width="2">
    <polyline points="485.5 958.5 485.5 159.5"/>
    <polyline points="485.5 81.5 485.5 74.5"/>
   </g>
   <g transform="scale(1.0492)" font-family="Ubuntu" font-size="10px" stroke="#000" stroke-linecap="round" stroke-linejoin="round">
    <polyline points="485.5 958.5 485.5 951.5"/>
    <polyline points="485.5 74.5 485.5 81.5"/>
   </g>
   <g transform="matrix(1.0492 0 0 1.0492 480.54 1034.5)" font-family="Sans" font-size="18px" stroke="#000" stroke-linecap="square" stroke-linejoin="bevel">
    <text fill="#000000" font-family="Sans" font-size="18px" font-weight="400" stroke="none" xml:space="preserve"> 3.5</text>
   </g>
   <g transform="scale(1.0492)" font-family="Ubuntu" font-size="10px" stroke="#a0a0a4" stroke-dasharray="2, 4" stroke-linecap="round" stroke-linejoin="round" stroke-width="2">
    <polyline points="579.5 958.5 579.5 159.5"/>
    <polyline points="579.5 81.5 579.5 74.5"/>
   </g>
   <g transform="scale(1.0492)" font-family="Ubuntu" font-size="10px" stroke="#000" stroke-linecap="round" stroke-linejoin="round">
    <polyline points="579.5 958.5 579.5 951.5"/>
    <polyline points="579.5 74.5 579.5 81.5"/>
   </g>
   <g transform="matrix(1.0492 0 0 1.0492 592.8 1034.5)" font-family="Sans" font-size="18px" stroke="#000" stroke-linecap="square" stroke-linejoin="bevel">
    <text fill="#000000" font-family="Sans" font-size="18px" font-weight="400" stroke="none" xml:space="preserve"> 4</text>
   </g>
   <g transform="scale(1.0492)" font-family="Ubuntu" font-size="10px" stroke="#a0a0a4" stroke-dasharray="2, 4" stroke-linecap="round" stroke-linejoin="round" stroke-width="2">
    <polyline points="672.5 958.5 672.5 159.5"/>
    <polyline points="672.5 81.5 672.5 74.5"/>
   </g>
   <g transform="scale(1.0492)" font-family="Ubuntu" font-size="10px" stroke="#000" stroke-linecap="round" stroke-linejoin="round">
    <polyline points="672.5 958.5 672.5 951.5"/>
    <polyline points="672.5 74.5 672.5 81.5"/>
   </g>
   <g transform="matrix(1.0492 0 0 1.0492 675.69 1034.5)" font-family="Sans" font-size="18px" stroke="#000" stroke-linecap="square" stroke-linejoin="bevel">
    <text fill="#000000" font-family="Sans" font-size="18px" font-weight="400" stroke="none" xml:space="preserve"> 4.5</text>
   </g>
   <g transform="scale(1.0492)" font-family="Ubuntu" font-size="10px" stroke="#a0a0a4" stroke-dasharray="2, 4" stroke-linecap="round" stroke-linejoin="round" stroke-width="2">
    <polyline points="765.5 958.5 765.5 159.5"/>
    <polyline points="765.5 81.5 765.5 74.5"/>
   </g>
   <g transform="scale(1.0492)" font-family="Ubuntu" font-size="10px" stroke="#000" stroke-linecap="round" stroke-linejoin="round">
    <polyline points="765.5 958.5 765.5 951.5"/>
    <polyline points="765.5 74.5 765.5 81.5"/>
   </g>
   <g transform="matrix(1.0492 0 0 1.0492 789.53 1034.5)" font-family="Sans" font-size="18px" stroke="#000" stroke-linecap="square" stroke-linejoin="bevel">
    <text fill="#000000" font-family="Sans" font-size="18px" font-weight="400" stroke="none" xml:space="preserve"> 5</text>
   </g>
   <g transform="scale(1.0492)" font-family="Ubuntu" font-size="10px" stroke="#a0a0a4" stroke-dasharray="2, 4" stroke-linecap="round" stroke-linejoin="round" stroke-width="2">
    <polyline points="859.5 958.5 859.5 159.5"/>
    <polyline points="859.5 81.5 859.5 74.5"/>
   </g>
   <g transform="scale(1.0492)" font-family="Ubuntu" font-size="10px" stroke="#000" stroke-linecap="round" stroke-linejoin="round">
    <polyline points="859.5 958.5 859.5 951.5"/>
    <polyline points="859.5 74.5 859.5 81.5"/>
   </g>
   <g transform="matrix(1.0492 0 0 1.0492 871.9 1034.5)" font-family="Sans" font-size="18px" stroke="#000" stroke-linecap="square" stroke-linejoin="bevel">
    <text fill="#000000" font-family="Sans" font-size="18px" font-weight="400" stroke="none" xml:space="preserve"> 5.5</text>
   </g>
   <g transform="scale(1.0492)" font-family="Ubuntu" font-size="10px" stroke="#a0a0a4" stroke-dasharray="2, 4" stroke-linecap="round" stroke-linejoin="round" stroke-width="2">
    <polyline points="952.5 958.5 952.5 74.5" fill="none"/>
   </g>
   <g stroke="#000">
    <g transform="scale(1.0492)" font-family="Ubuntu" font-size="10px" stroke-linecap="round" stroke-linejoin="round">
     <polyline points="952.5 958.5 952.5 951.5"/>
     <polyline points="952.5 74.5 952.5 81.5"/>
    </g>
    <g transform="matrix(1.0492 0 0 1.0492 984.16 1034.5)" font-family="Sans" font-size="18px" stroke-linecap="square" stroke-linejoin="bevel">
     <text fill="#000000" font-family="Sans" font-size="18px" font-weight="400" stroke="none" xml:space="preserve"> 6</text>
    </g>
    <g transform="scale(1.0492)" font-family="Ubuntu" font-size="10px" stroke-linecap="round" stroke-linejoin="round">
     <polyline points="112.5 74.5 112.5 958.5 952.5 958.5 952.5 74.5 112.5 74.5" fill="none"/>
    </g>
   </g>
  </g>
  <g font-family="Sans" stroke="#000" stroke-linecap="square" stroke-linejoin="bevel">
   <g transform="matrix(0 -1.0492 1.0492 0 50.362 737.6)" font-size="24px">
    <text fill="#000000" font-family="Sans" font-size="24px" font-weight="400" stroke="none" xml:space="preserve">Probability density</text>
   </g>
   <g transform="matrix(1.0492 0 0 1.0492 403.95 1059.6)" font-size="24px">
    <text fill="#000000" font-family="Sans" font-size="24px" font-weight="400" stroke="none" xml:space="preserve">Sample values</text>
   </g>
   <g transform="matrix(1.0492 0 0 1.0492 545.13 115.04)" font-size="20px">
    <text fill="#000000" font-family="Sans" font-size="20px" font-weight="400" stroke="none" xml:space="preserve">histogram sample size: 1000</text>
   </g>
  </g>
  <g transform="matrix(1.0492 0 0 1.0492 0 1.5)" font-family="Ubuntu" font-size="10px" stroke="#08aaff" stroke-linecap="round" stroke-linejoin="round" stroke-opacity=".97647" stroke-width="3.5">
   <path d="m831.5 110.5h91v-19h-91v19" fill-rule="evenodd"/>
  </g>
  <g transform="scale(1.0492)" font-family="Ubuntu" font-size="10px" stroke="#08aaff" stroke-linecap="round" stroke-linejoin="round" stroke-opacity=".97647" stroke-width="3.5">
   <polyline points="112.5 958.5 112.5 623.5 138.5 623.5 138.5 958.5 112.5 958.5"/>
   <polyline points="138.5 958.5 138.5 566.5 184.5 566.5 184.5 958.5 138.5 958.5"/>
   <polyline points="184.5 958.5 184.5 460.5 231.5 460.5 231.5 958.5 184.5 958.5"/>
   <polyline points="231.5 958.5 231.5 289.5 277.5 289.5 277.5 958.5 231.5 958.5"/>
   <polyline points="277.5 958.5 277.5 182.5 323.5 182.5 323.5 958.5 277.5 958.5"/>
   <polyline points="323.5 958.5 323.5 125.5 370.5 125.5 370.5 958.5 323.5 958.5"/>
   <polyline points="370.5 958.5 370.5 317.5 416.5 317.5 416.5 958.5 370.5 958.5"/>
   <polyline points="416.5 958.5 416.5 353.5 463.5 353.5 463.5 958.5 416.5 958.5"/>
   <polyline points="463.5 958.5 463.5 189.5 509.5 189.5 509.5 958.5 463.5 958.5"/>
   <polyline points="509.5 958.5 509.5 517.5 555.5 517.5 555.5 958.5 509.5 958.5"/>
   <polyline points="555.5 958.5 555.5 510.5 602.5 510.5 602.5 958.5 555.5 958.5"/>
   <polyline points="602.5 958.5 602.5 716.5 648.5 716.5 648.5 958.5 602.5 958.5"/>
   <polyline points="648.5 958.5 648.5 759.5 694.5 759.5 694.5 958.5 648.5 958.5"/>
   <polyline points="694.5 958.5 694.5 823.5 741.5 823.5 741.5 958.5 694.5 958.5"/>
   <polyline points="741.5 958.5 741.5 908.5 787.5 908.5 787.5 958.5 741.5 958.5"/>
   <polyline points="787.5 958.5 787.5 915.5 834.5 915.5 834.5 958.5 787.5 958.5"/>
   <polyline points="834.5 958.5 834.5 929.5 880.5 929.5 880.5 958.5 834.5 958.5"/>
   <polyline points="880.5 958.5 880.5 951.5 926.5 951.5 926.5 958.5 880.5 958.5"/>
   <polyline points="926.5 958.5 926.5 951.5 952.5 951.5 952.5 958.5 926.5 958.5"/>
  </g>
  <g transform="matrix(1.0492 0 0 1.0492 545.95 154.46)" font-family="Sans" font-size="20px" stroke="#000" stroke-linecap="square" stroke-linejoin="bevel">
   <text fill="#000000" font-family="Sans" font-size="20px" font-weight="400" stroke="none" xml:space="preserve">truncated normal distribution</text>
  </g>
  <g font-family="Ubuntu" font-size="10px" stroke-linecap="round" stroke-linejoin="round">
   <g transform="matrix(1.0492 0 0 1.0492 919.64 147.86)" stroke="#f00" stroke-width="4">
    <circle r="9"/>
   </g>
   <g transform="scale(1.0492)" stroke="#f00" stroke-width="4">
    <circle cx="115.5" cy="707.5" r="9"/>
    <circle cx="161.5" cy="606.5" r="9"/>
    <circle cx="207.5" cy="494.5" r="9"/>
    <circle cx="254.5" cy="382.5" r="9"/>
    <circle cx="300.5" cy="287.5" r="9"/>
    <circle cx="347.5" cy="223.5" r="9"/>
    <circle cx="393.5" cy="201.5" r="9"/>
    <circle cx="439.5" cy="225.5" r="9"/>
    <circle cx="486.5" cy="290.5" r="9"/>
    <circle cx="532.5" cy="387.5" r="9"/>
    <circle cx="579.5" cy="498.5" r="9"/>
    <circle cx="625.5" cy="610.5" r="9"/>
    <circle cx="671.5" cy="711.5" r="9"/>
    <circle cx="718.5" cy="793.5" r="9"/>
    <circle cx="764.5" cy="854.5" r="9"/>
    <circle cx="810.5" cy="896.5" r="9"/>
    <circle cx="857.5" cy="924.5" r="9"/>
    <circle cx="903.5" cy="940.5" r="9"/>
    <circle cx="950.5" cy="949.5" r="9"/>
   </g>
   <g transform="scale(1.0492)" stroke="#000">
    <polyline points="112.5 74.5 112.5 958.5 952.5 958.5 952.5 74.5 112.5 74.5" fill="none"/>
   </g>
  </g>
  <g transform="matrix(1.0492 0 0 1.0492 337.82 117.19)" font-family="' '" font-size="20px" stroke="#f00" stroke-linecap="square" stroke-linejoin="bevel">
   <text fill="#ff0000" font-family="' '" font-size="20px" font-weight="400" stroke="none" xml:space="preserve">mean = 3.113</text>
  </g>
  <g font-family="Ubuntu" font-size="10px" stroke-linecap="round" stroke-linejoin="round">
   <g transform="scale(1.0492)" stroke="#f00" stroke-width="4">
    <polyline points="388.8 944.4 392.5 958.3 396.2 944.4"/>
    <polyline points="392.5 958.5 392.5 201.5"/>
   </g>
   <g transform="scale(1.0492)" stroke="#a0a0a4" stroke-dasharray="2, 4" stroke-width="2">
    <polyline points="1038.5 958.5 1931.5 958.5" fill="none"/>
   </g>
   <g transform="scale(1.0492)" stroke="#000">
    <polyline points="1038.5 958.5 1045.5 958.5"/>
    <polyline points="1931.5 958.5 1924.5 958.5"/>
   </g>
  </g>
  <g>
   <g transform="matrix(1.0492 0 0 1.0492 1050.3 1015.6)" font-family="Sans" font-size="18px" stroke="#000" stroke-linecap="square" stroke-linejoin="bevel">
    <text fill="#000000" font-family="Sans" font-size="18px" font-weight="400" stroke="none" xml:space="preserve"> 0</text>
   </g>
   <g transform="scale(1.0492)" font-family="Ubuntu" font-size="10px" stroke="#a0a0a4" stroke-dasharray="2, 4" stroke-linecap="round" stroke-linejoin="round" stroke-width="2">
    <polyline points="1038.5 781.5 1931.5 781.5" fill="none"/>
   </g>
   <g transform="scale(1.0492)" font-family="Ubuntu" font-size="10px" stroke="#000" stroke-linecap="round" stroke-linejoin="round">
    <polyline points="1038.5 781.5 1045.5 781.5"/>
    <polyline points="1931.5 781.5 1924.5 781.5"/>
   </g>
   <g transform="matrix(1.0492 0 0 1.0492 1020.9 829.93)" font-family="Sans" font-size="18px" stroke="#000" stroke-linecap="square" stroke-linejoin="bevel">
    <text fill="#000000" font-family="Sans" font-size="18px" font-weight="400" stroke="none" xml:space="preserve"> 0.1</text>
   </g>
   <g transform="scale(1.0492)" font-family="Ubuntu" font-size="10px" stroke="#a0a0a4" stroke-dasharray="2, 4" stroke-linecap="round" stroke-linejoin="round" stroke-width="2">
    <polyline points="1038.5 604.5 1931.5 604.5" fill="none"/>
   </g>
   <g transform="scale(1.0492)" font-family="Ubuntu" font-size="10px" stroke="#000" stroke-linecap="round" stroke-linejoin="round">
    <polyline points="1038.5 604.5 1045.5 604.5"/>
    <polyline points="1931.5 604.5 1924.5 604.5"/>
   </g>
   <g transform="matrix(1.0492 0 0 1.0492 1020.9 645.27)" font-family="Sans" font-size="18px" stroke="#000" stroke-linecap="square" stroke-linejoin="bevel">
    <text fill="#000000" font-family="Sans" font-size="18px" font-weight="400" stroke="none" xml:space="preserve"> 0.2</text>
   </g>
   <g transform="scale(1.0492)" font-family="Ubuntu" font-size="10px" stroke="#a0a0a4" stroke-dasharray="2, 4" stroke-linecap="round" stroke-linejoin="round" stroke-width="2">
    <polyline points="1038.5 427.5 1931.5 427.5" fill="none"/>
   </g>
   <g transform="scale(1.0492)" font-family="Ubuntu" font-size="10px" stroke="#000" stroke-linecap="round" stroke-linejoin="round">
    <polyline points="1038.5 427.5 1045.5 427.5"/>
    <polyline points="1931.5 427.5 1924.5 427.5"/>
   </g>
   <g transform="matrix(1.0492 0 0 1.0492 1020.9 459.56)" font-family="Sans" font-size="18px" stroke="#000" stroke-linecap="square" stroke-linejoin="bevel">
    <text fill="#000000" font-family="Sans" font-size="18px" font-weight="400" stroke="none" xml:space="preserve"> 0.3</text>
   </g>
   <g transform="scale(1.0492)" font-family="Ubuntu" font-size="10px" stroke="#a0a0a4" stroke-dasharray="2, 4" stroke-linecap="round" stroke-linejoin="round" stroke-width="2">
    <polyline points="1038.5 250.5 1931.5 250.5" fill="none"/>
   </g>
   <g transform="scale(1.0492)" font-family="Ubuntu" font-size="10px" stroke="#000" stroke-linecap="round" stroke-linejoin="round">
    <polyline points="1038.5 250.5 1045.5 250.5"/>
    <polyline points="1931.5 250.5 1924.5 250.5"/>
   </g>
   <g transform="matrix(1.0492 0 0 1.0492 1019.8 273.84)" font-family="Sans" font-size="18px" stroke="#000" stroke-linecap="square" stroke-linejoin="bevel">
    <text fill="#000000" font-family="Sans" font-size="18px" font-weight="400" stroke="none" xml:space="preserve"> 0.4</text>
   </g>
   <g transform="scale(1.0492)" font-family="Ubuntu" font-size="10px" stroke="#a0a0a4" stroke-dasharray="2, 4" stroke-linecap="round" stroke-linejoin="round" stroke-width="2">
    <polyline points="1038.5 74.5 1931.5 74.5" fill="none"/>
   </g>
   <g transform="scale(1.0492)" font-family="Ubuntu" font-size="10px" stroke="#000" stroke-linecap="round" stroke-linejoin="round">
    <polyline points="1038.5 74.5 1045.5 74.5"/>
    <polyline points="1931.5 74.5 1924.5 74.5"/>
   </g>
   <g transform="matrix(1.0492 0 0 1.0492 1020.9 88.134)" font-family="Sans" font-size="18px" stroke="#000" stroke-linecap="square" stroke-linejoin="bevel">
    <text fill="#000000" font-family="Sans" font-size="18px" font-weight="400" stroke="none" xml:space="preserve"> 0.5</text>
   </g>
   <g transform="scale(1.0492)" font-family="Ubuntu" font-size="10px" stroke="#a0a0a4" stroke-dasharray="2, 4" stroke-linecap="round" stroke-linejoin="round" stroke-width="2">
    <polyline points="1038.5 958.5 1038.5 74.5" fill="none"/>
   </g>
   <g transform="scale(1.0492)" font-family="Ubuntu" font-size="10px" stroke="#000" stroke-linecap="round" stroke-linejoin="round">
    <polyline points="1038.5 958.5 1038.5 951.5"/>
    <polyline points="1038.5 74.5 1038.5 81.5"/>
   </g>
   <g transform="matrix(1.0492 0 0 1.0492 1059.7 1034.5)" font-family="Sans" font-size="18px" stroke="#000" stroke-linecap="square" stroke-linejoin="bevel">
    <text fill="#000000" font-family="Sans" font-size="18px" font-weight="400" stroke="none" xml:space="preserve"> 1.5</text>
   </g>
   <g transform="scale(1.0492)" font-family="Ubuntu" font-size="10px" stroke="#a0a0a4" stroke-dasharray="2, 4" stroke-linecap="round" stroke-linejoin="round" stroke-width="2">
    <polyline points="1137.5 958.5 1137.5 74.5" fill="none"/>
   </g>
   <g transform="scale(1.0492)" font-family="Ubuntu" font-size="10px" stroke="#000" stroke-linecap="round" stroke-linejoin="round">
    <polyline points="1137.5 958.5 1137.5 951.5"/>
    <polyline points="1137.5 74.5 1137.5 81.5"/>
   </g>
   <g transform="matrix(1.0492 0 0 1.0492 1178.8 1034.5)" font-family="Sans" font-size="18px" stroke="#000" stroke-linecap="square" stroke-linejoin="bevel">
    <text fill="#000000" font-family="Sans" font-size="18px" font-weight="400" stroke="none" xml:space="preserve"> 2</text>
   </g>
   <g transform="scale(1.0492)" font-family="Ubuntu" font-size="10px" stroke="#a0a0a4" stroke-dasharray="2, 4" stroke-linecap="round" stroke-linejoin="round" stroke-width="2">
    <polyline points="1236.5 958.5 1236.5 159.5"/>
    <polyline points="1236.5 81.5 1236.5 74.5"/>
   </g>
   <g transform="scale(1.0492)" font-family="Ubuntu" font-size="10px" stroke="#000" stroke-linecap="round" stroke-linejoin="round">
    <polyline points="1236.5 958.5 1236.5 951.5"/>
    <polyline points="1236.5 74.5 1236.5 81.5"/>
   </g>
   <g transform="matrix(1.0492 0 0 1.0492 1268.5 1034.5)" font-family="Sans" font-size="18px" stroke="#000" stroke-linecap="square" stroke-linejoin="bevel">
    <text fill="#000000" font-family="Sans" font-size="18px" font-weight="400" stroke="none" xml:space="preserve"> 2.5</text>
   </g>
   <g transform="scale(1.0492)" font-family="Ubuntu" font-size="10px" stroke="#a0a0a4" stroke-dasharray="2, 4" stroke-linecap="round" stroke-linejoin="round" stroke-width="2">
    <polyline points="1336.5 958.5 1336.5 159.5"/>
    <polyline points="1336.5 81.5 1336.5 74.5"/>
   </g>
   <g transform="scale(1.0492)" font-family="Ubuntu" font-size="10px" stroke="#000" stroke-linecap="round" stroke-linejoin="round">
    <polyline points="1336.5 958.5 1336.5 951.5"/>
    <polyline points="1336.5 74.5 1336.5 81.5"/>
   </g>
   <g transform="matrix(1.0492 0 0 1.0492 1387.6 1034.5)" font-family="Sans" font-size="18px" stroke="#000" stroke-linecap="square" stroke-linejoin="bevel">
    <text fill="#000000" font-family="Sans" font-size="18px" font-weight="400" stroke="none" xml:space="preserve"> 3</text>
   </g>
   <g transform="scale(1.0492)" font-family="Ubuntu" font-size="10px" stroke="#a0a0a4" stroke-dasharray="2, 4" stroke-linecap="round" stroke-linejoin="round" stroke-width="2">
    <polyline points="1435.5 958.5 1435.5 159.5"/>
    <polyline points="1435.5 81.5 1435.5 74.5"/>
   </g>
   <g transform="scale(1.0492)" font-family="Ubuntu" font-size="10px" stroke="#000" stroke-linecap="round" stroke-linejoin="round">
    <polyline points="1435.5 958.5 1435.5 951.5"/>
    <polyline points="1435.5 74.5 1435.5 81.5"/>
   </g>
   <g transform="matrix(1.0492 0 0 1.0492 1476.2 1034.5)" font-family="Sans" font-size="18px" stroke="#000" stroke-linecap="square" stroke-linejoin="bevel">
    <text fill="#000000" font-family="Sans" font-size="18px" font-weight="400" stroke="none" xml:space="preserve"> 3.5</text>
   </g>
   <g transform="scale(1.0492)" font-family="Ubuntu" font-size="10px" stroke="#a0a0a4" stroke-dasharray="2, 4" stroke-linecap="round" stroke-linejoin="round" stroke-width="2">
    <polyline points="1534.5 958.5 1534.5 159.5"/>
    <polyline points="1534.5 81.5 1534.5 74.5"/>
   </g>
   <g transform="scale(1.0492)" font-family="Ubuntu" font-size="10px" stroke="#000" stroke-linecap="round" stroke-linejoin="round">
    <polyline points="1534.5 958.5 1534.5 951.5"/>
    <polyline points="1534.5 74.5 1534.5 81.5"/>
   </g>
   <g transform="matrix(1.0492 0 0 1.0492 1595.8 1034.5)" font-family="Sans" font-size="18px" stroke="#000" stroke-linecap="square" stroke-linejoin="bevel">
    <text fill="#000000" font-family="Sans" font-size="18px" font-weight="400" stroke="none" xml:space="preserve"> 4</text>
   </g>
   <g transform="scale(1.0492)" font-family="Ubuntu" font-size="10px" stroke="#a0a0a4" stroke-dasharray="2, 4" stroke-linecap="round" stroke-linejoin="round" stroke-width="2">
    <polyline points="1633.5 958.5 1633.5 159.5"/>
    <polyline points="1633.5 81.5 1633.5 74.5"/>
   </g>
   <g transform="scale(1.0492)" font-family="Ubuntu" font-size="10px" stroke="#000" stroke-linecap="round" stroke-linejoin="round">
    <polyline points="1633.5 958.5 1633.5 951.5"/>
    <polyline points="1633.5 74.5 1633.5 81.5"/>
   </g>
   <g transform="matrix(1.0492 0 0 1.0492 1685 1034.5)" font-family="Sans" font-size="18px" stroke="#000" stroke-linecap="square" stroke-linejoin="bevel">
    <text fill="#000000" font-family="Sans" font-size="18px" font-weight="400" stroke="none" xml:space="preserve"> 4.5</text>
   </g>
   <g transform="scale(1.0492)" font-family="Ubuntu" font-size="10px" stroke="#a0a0a4" stroke-dasharray="2, 4" stroke-linecap="round" stroke-linejoin="round" stroke-width="2">
    <polyline points="1733.5 958.5 1733.5 159.5"/>
    <polyline points="1733.5 81.5 1733.5 74.5"/>
   </g>
   <g transform="scale(1.0492)" font-family="Ubuntu" font-size="10px" stroke="#000" stroke-linecap="round" stroke-linejoin="round">
    <polyline points="1733.5 958.5 1733.5 951.5"/>
    <polyline points="1733.5 74.5 1733.5 81.5"/>
   </g>
   <g transform="matrix(1.0492 0 0 1.0492 1804.1 1034.5)" font-family="Sans" font-size="18px" stroke="#000" stroke-linecap="square" stroke-linejoin="bevel">
    <text fill="#000000" font-family="Sans" font-size="18px" font-weight="400" stroke="none" xml:space="preserve"> 5</text>
   </g>
   <g transform="scale(1.0492)" font-family="Ubuntu" font-size="10px" stroke="#a0a0a4" stroke-dasharray="2, 4" stroke-linecap="round" stroke-linejoin="round" stroke-width="2">
    <polyline points="1832.5 958.5 1832.5 159.5"/>
    <polyline points="1832.5 81.5 1832.5 74.5"/>
   </g>
   <g transform="scale(1.0492)" font-family="Ubuntu" font-size="10px" stroke="#000" stroke-linecap="round" stroke-linejoin="round">
    <polyline points="1832.5 958.5 1832.5 951.5"/>
    <polyline points="1832.5 74.5 1832.5 81.5"/>
   </g>
   <g transform="matrix(1.0492 0 0 1.0492 1893.8 1034.5)" font-family="Sans" font-size="18px" stroke="#000" stroke-linecap="square" stroke-linejoin="bevel">
    <text fill="#000000" font-family="Sans" font-size="18px" font-weight="400" stroke="none" xml:space="preserve"> 5.5</text>
   </g>
   <g transform="scale(1.0492)" font-family="Ubuntu" font-size="10px" stroke="#a0a0a4" stroke-dasharray="2, 4" stroke-linecap="round" stroke-linejoin="round" stroke-width="2">
    <polyline points="1931.5 958.5 1931.5 74.5" fill="none"/>
   </g>
  </g>
  <g stroke="#000">
   <g transform="scale(1.0492)" font-family="Ubuntu" font-size="10px" stroke-linecap="round" stroke-linejoin="round">
    <polyline points="1931.5 958.5 1931.5 951.5"/>
    <polyline points="1931.5 74.5 1931.5 81.5"/>
   </g>
   <g transform="matrix(1.0492 0 0 1.0492 2012.4 1034.5)" font-family="Sans" font-size="18px" stroke-linecap="square" stroke-linejoin="bevel">
    <text fill="#000000" font-family="Sans" font-size="18px" font-weight="400" stroke="none" xml:space="preserve"> 6</text>
   </g>
   <g transform="scale(1.0492)" font-family="Ubuntu" font-size="10px" stroke-linecap="round" stroke-linejoin="round">
    <polyline points="1038.5 74.5 1038.5 958.5 1931.5 958.5 1931.5 74.5 1038.5 74.5" fill="none"/>
   </g>
  </g>
  <g stroke-linecap="square" stroke-linejoin="bevel">
   <g transform="matrix(1.0492 0 0 1.0492 1326.4 117.19)" font-family="' '" font-size="20px" stroke="#f00">
    <text fill="#ff0000" font-family="' '" font-size="20px" font-weight="400" stroke="none" xml:space="preserve">mean = 3.125</text>
   </g>
   <g transform="matrix(1.0492 0 0 1.0492 1393.4 1059.6)" font-family="Sans" font-size="24px" stroke="#000">
    <text fill="#000000" font-family="Sans" font-size="24px" font-weight="400" stroke="none" xml:space="preserve">Sample values</text>
   </g>
   <g transform="matrix(1.0492 0 0 1.0492 1561.4 118.04)" font-family="Sans" font-size="20px" stroke="#000">
    <text fill="#000000" font-family="Sans" font-size="20px" font-weight="400" stroke="none" xml:space="preserve">histogram sample size: 6750</text>
   </g>
  </g>
  <g transform="matrix(1.0492 0 0 1.0492 0 3)" font-family="Ubuntu" font-size="10px" stroke="#08aaff" stroke-linecap="round" stroke-linejoin="round" stroke-opacity=".97647" stroke-width="3.5">
   <path d="m1810.5 110.5h91v-19h-91v19" fill-rule="evenodd"/>
  </g>
  <g transform="scale(1.0492)" font-family="Ubuntu" font-size="10px" stroke="#08aaff" stroke-linecap="round" stroke-linejoin="round" stroke-opacity=".97647" stroke-width="3.5">
   <polyline points="1038.5 958.5 1038.5 723.5 1051.5 723.5 1051.5 958.5 1038.5 958.5"/>
   <polyline points="1051.5 958.5 1051.5 655.5 1077.5 655.5 1077.5 958.5 1051.5 958.5"/>
   <polyline points="1077.5 958.5 1077.5 551.5 1103.5 551.5 1103.5 958.5 1077.5 958.5"/>
   <polyline points="1103.5 958.5 1103.5 511.5 1129.5 511.5 1129.5 958.5 1103.5 958.5"/>
   <polyline points="1129.5 958.5 1129.5 464.5 1156.5 464.5 1156.5 958.5 1129.5 958.5"/>
   <polyline points="1156.5 958.5 1156.5 358.5 1182.5 358.5 1182.5 958.5 1156.5 958.5"/>
   <polyline points="1182.5 958.5 1182.5 394.5 1208.5 394.5 1208.5 958.5 1182.5 958.5"/>
   <polyline points="1208.5 958.5 1208.5 280.5 1234.5 280.5 1234.5 958.5 1208.5 958.5"/>
   <polyline points="1234.5 958.5 1234.5 222.5 1260.5 222.5 1260.5 958.5 1234.5 958.5"/>
   <polyline points="1260.5 958.5 1260.5 216.5 1286.5 216.5 1286.5 958.5 1260.5 958.5"/>
   <polyline points="1286.5 958.5 1286.5 165.5 1312.5 165.5 1312.5 958.5 1286.5 958.5"/>
   <polyline points="1312.5 958.5 1312.5 214.5 1338.5 214.5 1338.5 958.5 1312.5 958.5"/>
   <polyline points="1338.5 958.5 1338.5 151.5 1364.5 151.5 1364.5 958.5 1338.5 958.5"/>
   <polyline points="1364.5 958.5 1364.5 232.5 1391.5 232.5 1391.5 958.5 1364.5 958.5"/>
   <polyline points="1391.5 958.5 1391.5 280.5 1417.5 280.5 1417.5 958.5 1391.5 958.5"/>
   <polyline points="1417.5 958.5 1417.5 264.5 1443.5 264.5 1443.5 958.5 1417.5 958.5"/>
   <polyline points="1443.5 958.5 1443.5 310.5 1469.5 310.5 1469.5 958.5 1443.5 958.5"/>
   <polyline points="1469.5 958.5 1469.5 408.5 1495.5 408.5 1495.5 958.5 1469.5 958.5"/>
   <polyline points="1495.5 958.5 1495.5 565.5 1521.5 565.5 1521.5 958.5 1495.5 958.5"/>
   <polyline points="1521.5 958.5 1521.5 539.5 1547.5 539.5 1547.5 958.5 1521.5 958.5"/>
   <polyline points="1547.5 958.5 1547.5 567.5 1573.5 567.5 1573.5 958.5 1547.5 958.5"/>
   <polyline points="1573.5 958.5 1573.5 649.5 1599.5 649.5 1599.5 958.5 1573.5 958.5"/>
   <polyline points="1599.5 958.5 1599.5 709.5 1626.5 709.5 1626.5 958.5 1599.5 958.5"/>
   <polyline points="1626.5 958.5 1626.5 780.5 1652.5 780.5 1652.5 958.5 1626.5 958.5"/>
   <polyline points="1652.5 958.5 1652.5 768.5 1678.5 768.5 1678.5 958.5 1652.5 958.5"/>
   <polyline points="1678.5 958.5 1678.5 828.5 1704.5 828.5 1704.5 958.5 1678.5 958.5"/>
   <polyline points="1704.5 958.5 1704.5 870.5 1730.5 870.5 1730.5 958.5 1704.5 958.5"/>
   <polyline points="1730.5 958.5 1730.5 852.5 1756.5 852.5 1756.5 958.5 1730.5 958.5"/>
   <polyline points="1756.5 958.5 1756.5 898.5 1782.5 898.5 1782.5 958.5 1756.5 958.5"/>
   <polyline points="1782.5 958.5 1782.5 916.5 1808.5 916.5 1808.5 958.5 1782.5 958.5"/>
   <polyline points="1808.5 958.5 1808.5 930.5 1834.5 930.5 1834.5 958.5 1808.5 958.5"/>
   <polyline points="1834.5 958.5 1834.5 948.5 1861.5 948.5 1861.5 958.5 1834.5 958.5"/>
   <polyline points="1861.5 958.5 1861.5 948.5 1887.5 948.5 1887.5 958.5 1861.5 958.5"/>
   <polyline points="1887.5 958.5 1887.5 948.5 1913.5 948.5 1913.5 958.5 1887.5 958.5"/>
   <polyline points="1913.5 958.5 1913.5 956.5 1931.5 956.5 1931.5 958.5 1913.5 958.5"/>
  </g>
  <g>
   <g transform="matrix(1.0492 0 0 1.0492 1560.7 158.96)" font-family="Sans" font-size="20px" stroke="#000" stroke-linecap="square" stroke-linejoin="bevel">
    <text fill="#000000" font-family="Sans" font-size="20px" font-weight="400" stroke="none" xml:space="preserve">truncated normal distribution</text>
   </g>
   <g transform="matrix(1.0492 0 0 1.0492 1947.9 147.86)" font-family="Ubuntu" font-size="10px" stroke="#f00" stroke-linecap="round" stroke-linejoin="round" stroke-width="4">
    <circle r="9"/>
   </g>
   <g transform="scale(1.0492)" font-family="Ubuntu" font-size="10px" stroke="#f00" stroke-linecap="round" stroke-linejoin="round" stroke-width="4">
    <circle cx="1038.5" cy="711.5" r="9"/>
    <circle cx="1064.5" cy="660.5" r="9"/>
    <circle cx="1090.5" cy="605.5" r="9"/>
    <circle cx="1116.5" cy="546.5" r="9"/>
    <circle cx="1142.5" cy="486.5" r="9"/>
    <circle cx="1169.5" cy="426.5" r="9"/>
    <circle cx="1195.5" cy="369.5" r="9"/>
    <circle cx="1221.5" cy="317.5" r="9"/>
    <circle cx="1247.5" cy="272.5" r="9"/>
    <circle cx="1273.5" cy="237.5" r="9"/>
    <circle cx="1299.5" cy="213.5" r="9"/>
    <circle cx="1325.5" cy="202.5" r="9"/>
    <circle cx="1351.5" cy="203.5" r="9"/>
    <circle cx="1377.5" cy="217.5" r="9"/>
    <circle cx="1404.5" cy="244.5" r="9"/>
    <circle cx="1430.5" cy="281.5" r="9"/>
    <circle cx="1456.5" cy="327.5" r="9"/>
    <circle cx="1482.5" cy="381.5" r="9"/>
    <circle cx="1508.5" cy="438.5" r="9"/>
    <circle cx="1534.5" cy="499.5" r="9"/>
    <circle cx="1560.5" cy="559.5" r="9"/>
    <circle cx="1586.5" cy="617.5" r="9"/>
    <circle cx="1612.5" cy="671.5" r="9"/>
    <circle cx="1639.5" cy="721.5" r="9"/>
    <circle cx="1665.5" cy="766.5" r="9"/>
    <circle cx="1691.5" cy="805.5" r="9"/>
    <circle cx="1717.5" cy="838.5" r="9"/>
    <circle cx="1743.5" cy="866.5" r="9"/>
    <circle cx="1769.5" cy="888.5" r="9"/>
    <circle cx="1795.5" cy="906.5" r="9"/>
    <circle cx="1821.5" cy="920.5" r="9"/>
    <circle cx="1847.5" cy="930.5" r="9"/>
    <circle cx="1874.5" cy="939.5" r="9"/>
    <circle cx="1900.5" cy="944.5" r="9"/>
    <circle cx="1926.5" cy="949.5" r="9"/>
    <polyline points="1332.3 944.4 1336 958.3 1339.7 944.4" fill="none"/>
    <polyline points="1336.5 958.5 1336.5 201.5" fill="none"/>
   </g>
  </g>
 </g>
 <metadata>
  <rdf:RDF>
   <cc:Work rdf:about="">
    <dc:title>Qt SVG Document</dc:title>
   </cc:Work>
  </rdf:RDF>
 </metadata>
 <rect x="696.93" y="594.59" width="262.03" height="34.216" rx="0" ry="22.078" fill="#feffff" stroke="#008080" stroke-width="2.2677"/>
 <rect x="1706.1" y="595.02" width="262.03" height="34.216" rx="0" ry="22.078" fill="#feffff" stroke="#008080" stroke-width="2.2677"/>
 <g transform="matrix(1.0492 0 0 1.0492 702.52 620.08)" fill="#008033" fill-rule="evenodd" font-family="' '" font-size="20px" font-weight="400" stroke="#322" stroke-linecap="square" stroke-linejoin="bevel">
  <text fill="#008033" font-family="' '" font-size="22.874px" font-weight="400" stroke="none" xml:space="preserve">interval size = 0.237</text>
 </g>
 <g transform="matrix(1.0492 0 0 1.0492 1713.4 620.08)" fill="#008033" fill-rule="evenodd" font-family="' '" font-size="20px" font-weight="400" stroke="#322" stroke-linecap="square" stroke-linejoin="bevel">
  <text fill="#008033" font-family="' '" font-size="22.874px" font-weight="400" stroke="none" xml:space="preserve">interval size = 0.129</text>
 </g>
</svg>
